<mxfile host="app.diagrams.net" modified="2021-09-22T12:49:00.163Z" agent="5.0 (Windows NT 10.0; Win64; x64) AppleWebKit/537.36 (KHTML, like Gecko) Chrome/92.0.4515.159 Safari/537.36 OPR/78.0.4093.231" etag="r0YRyXdvHPUdIu4zfbxT" version="15.2.9" type="github">
  <diagram id="zSOYpsrUBCB2H4yTp7D8" name="Page-1">
    <mxGraphModel dx="2968" dy="4090" grid="1" gridSize="10" guides="1" tooltips="1" connect="1" arrows="1" fold="1" page="1" pageScale="1" pageWidth="827" pageHeight="1169" math="0" shadow="0">
      <root>
        <mxCell id="0" />
        <mxCell id="1" parent="0" />
        <mxCell id="IxU6LafEznbJiutgOqX1-1" value="Початок" style="whiteSpace=wrap;html=1;" vertex="1" parent="1">
          <mxGeometry x="320" y="-1600" width="120" height="60" as="geometry" />
        </mxCell>
        <mxCell id="IxU6LafEznbJiutgOqX1-2" value="" style="endArrow=classic;html=1;startArrow=none;" edge="1" parent="1" source="IxU6LafEznbJiutgOqX1-4">
          <mxGeometry width="50" height="50" relative="1" as="geometry">
            <mxPoint x="379.5" y="-1540" as="sourcePoint" />
            <mxPoint x="380" y="-1490" as="targetPoint" />
          </mxGeometry>
        </mxCell>
        <mxCell id="IxU6LafEznbJiutgOqX1-9" value="" style="edgeStyle=orthogonalEdgeStyle;orthogonalLoop=1;jettySize=auto;html=1;" edge="1" parent="1" source="IxU6LafEznbJiutgOqX1-5" target="IxU6LafEznbJiutgOqX1-8">
          <mxGeometry relative="1" as="geometry" />
        </mxCell>
        <mxCell id="IxU6LafEznbJiutgOqX1-5" value="(1/abs(x+2))+1" style="whiteSpace=wrap;html=1;" vertex="1" parent="1">
          <mxGeometry x="319" y="-1370" width="120" height="60" as="geometry" />
        </mxCell>
        <mxCell id="IxU6LafEznbJiutgOqX1-6" value="" style="endArrow=classic;html=1;" edge="1" parent="1">
          <mxGeometry width="50" height="50" relative="1" as="geometry">
            <mxPoint x="379.5" y="-1430" as="sourcePoint" />
            <mxPoint x="379.5" y="-1370" as="targetPoint" />
            <Array as="points">
              <mxPoint x="379.5" y="-1430" />
            </Array>
          </mxGeometry>
        </mxCell>
        <mxCell id="IxU6LafEznbJiutgOqX1-4" value="X" style="shape=parallelogram;perimeter=parallelogramPerimeter;whiteSpace=wrap;html=1;fixedSize=1;" vertex="1" parent="1">
          <mxGeometry x="320" y="-1490" width="120" height="60" as="geometry" />
        </mxCell>
        <mxCell id="IxU6LafEznbJiutgOqX1-7" value="" style="endArrow=none;html=1;" edge="1" parent="1" target="IxU6LafEznbJiutgOqX1-4">
          <mxGeometry width="50" height="50" relative="1" as="geometry">
            <mxPoint x="379.5" y="-1540" as="sourcePoint" />
            <mxPoint x="380" y="-1490" as="targetPoint" />
          </mxGeometry>
        </mxCell>
        <mxCell id="IxU6LafEznbJiutgOqX1-8" value="x&amp;lt;1" style="rhombus;whiteSpace=wrap;html=1;" vertex="1" parent="1">
          <mxGeometry x="339" y="-1240" width="80" height="80" as="geometry" />
        </mxCell>
        <mxCell id="IxU6LafEznbJiutgOqX1-14" value="" style="endArrow=none;html=1;" edge="1" parent="1">
          <mxGeometry width="50" height="50" relative="1" as="geometry">
            <mxPoint x="260" y="-1090" as="sourcePoint" />
            <mxPoint x="260" y="-1200" as="targetPoint" />
          </mxGeometry>
        </mxCell>
        <mxCell id="IxU6LafEznbJiutgOqX1-15" value="" style="endArrow=none;html=1;entryX=0;entryY=0.5;entryDx=0;entryDy=0;startArrow=none;" edge="1" parent="1" target="IxU6LafEznbJiutgOqX1-8">
          <mxGeometry width="50" height="50" relative="1" as="geometry">
            <mxPoint x="340" y="-1200" as="sourcePoint" />
            <mxPoint x="310" y="-1250" as="targetPoint" />
          </mxGeometry>
        </mxCell>
        <mxCell id="IxU6LafEznbJiutgOqX1-16" value="" style="endArrow=none;html=1;" edge="1" parent="1">
          <mxGeometry width="50" height="50" relative="1" as="geometry">
            <mxPoint x="419" y="-1200" as="sourcePoint" />
            <mxPoint x="500" y="-1200" as="targetPoint" />
            <Array as="points">
              <mxPoint x="460" y="-1200" />
              <mxPoint x="480" y="-1200" />
              <mxPoint x="500" y="-1200" />
            </Array>
          </mxGeometry>
        </mxCell>
        <mxCell id="IxU6LafEznbJiutgOqX1-18" value="" style="endArrow=classic;html=1;" edge="1" parent="1">
          <mxGeometry width="50" height="50" relative="1" as="geometry">
            <mxPoint x="500" y="-1200" as="sourcePoint" />
            <mxPoint x="500" y="-1170" as="targetPoint" />
          </mxGeometry>
        </mxCell>
        <mxCell id="IxU6LafEznbJiutgOqX1-19" value="B = 7 * x * x + x - 8" style="whiteSpace=wrap;html=1;" vertex="1" parent="1">
          <mxGeometry x="440" y="-1169" width="110" height="39" as="geometry" />
        </mxCell>
        <mxCell id="IxU6LafEznbJiutgOqX1-20" value="" style="endArrow=none;html=1;" edge="1" parent="1">
          <mxGeometry width="50" height="50" relative="1" as="geometry">
            <mxPoint x="500" y="-1090" as="sourcePoint" />
            <mxPoint x="500" y="-1130" as="targetPoint" />
          </mxGeometry>
        </mxCell>
        <mxCell id="IxU6LafEznbJiutgOqX1-21" value="" style="endArrow=none;html=1;" edge="1" parent="1">
          <mxGeometry width="50" height="50" relative="1" as="geometry">
            <mxPoint x="260" y="-1090" as="sourcePoint" />
            <mxPoint x="500" y="-1090" as="targetPoint" />
          </mxGeometry>
        </mxCell>
        <mxCell id="IxU6LafEznbJiutgOqX1-22" value="" style="endArrow=classic;html=1;" edge="1" parent="1">
          <mxGeometry width="50" height="50" relative="1" as="geometry">
            <mxPoint x="380" y="-1090" as="sourcePoint" />
            <mxPoint x="380" y="-1060" as="targetPoint" />
          </mxGeometry>
        </mxCell>
        <mxCell id="IxU6LafEznbJiutgOqX1-23" value="1 &gt;= x &amp;&amp; x &gt;= 4" style="rhombus;whiteSpace=wrap;html=1;" vertex="1" parent="1">
          <mxGeometry x="320" y="-1060" width="120" height="80" as="geometry" />
        </mxCell>
        <mxCell id="IxU6LafEznbJiutgOqX1-26" value="" style="endArrow=none;html=1;" edge="1" parent="1">
          <mxGeometry width="50" height="50" relative="1" as="geometry">
            <mxPoint x="260" y="-1020" as="sourcePoint" />
            <mxPoint x="320" y="-1020" as="targetPoint" />
          </mxGeometry>
        </mxCell>
        <mxCell id="IxU6LafEznbJiutgOqX1-27" value="" style="endArrow=none;html=1;startArrow=none;exitX=0;exitY=1;exitDx=0;exitDy=0;" edge="1" parent="1" source="IxU6LafEznbJiutgOqX1-52">
          <mxGeometry width="50" height="50" relative="1" as="geometry">
            <mxPoint x="439" y="-1020" as="sourcePoint" />
            <mxPoint x="500" y="-1020" as="targetPoint" />
          </mxGeometry>
        </mxCell>
        <mxCell id="IxU6LafEznbJiutgOqX1-28" value="" style="endArrow=none;html=1;" edge="1" parent="1">
          <mxGeometry width="50" height="50" relative="1" as="geometry">
            <mxPoint x="260" y="-920" as="sourcePoint" />
            <mxPoint x="260" y="-1020" as="targetPoint" />
          </mxGeometry>
        </mxCell>
        <mxCell id="IxU6LafEznbJiutgOqX1-29" value="" style="endArrow=classic;html=1;" edge="1" parent="1" target="IxU6LafEznbJiutgOqX1-30">
          <mxGeometry width="50" height="50" relative="1" as="geometry">
            <mxPoint x="499" y="-1020" as="sourcePoint" />
            <mxPoint x="500" y="-980" as="targetPoint" />
          </mxGeometry>
        </mxCell>
        <mxCell id="IxU6LafEznbJiutgOqX1-30" value="B = 1/tan ((x + 4) / (11))" style="whiteSpace=wrap;html=1;direction=west;" vertex="1" parent="1">
          <mxGeometry x="440" y="-990" width="120" height="40" as="geometry" />
        </mxCell>
        <mxCell id="IxU6LafEznbJiutgOqX1-32" value="" style="endArrow=none;html=1;" edge="1" parent="1">
          <mxGeometry width="50" height="50" relative="1" as="geometry">
            <mxPoint x="500" y="-920" as="sourcePoint" />
            <mxPoint x="500" y="-950" as="targetPoint" />
          </mxGeometry>
        </mxCell>
        <mxCell id="IxU6LafEznbJiutgOqX1-33" value="" style="endArrow=none;html=1;" edge="1" parent="1">
          <mxGeometry width="50" height="50" relative="1" as="geometry">
            <mxPoint x="260" y="-920" as="sourcePoint" />
            <mxPoint x="500" y="-920" as="targetPoint" />
          </mxGeometry>
        </mxCell>
        <mxCell id="IxU6LafEznbJiutgOqX1-34" value="" style="endArrow=classic;html=1;" edge="1" parent="1" target="IxU6LafEznbJiutgOqX1-35">
          <mxGeometry width="50" height="50" relative="1" as="geometry">
            <mxPoint x="380" y="-920" as="sourcePoint" />
            <mxPoint x="380" y="-890" as="targetPoint" />
          </mxGeometry>
        </mxCell>
        <mxCell id="IxU6LafEznbJiutgOqX1-35" value="x &gt; 4" style="rhombus;whiteSpace=wrap;html=1;" vertex="1" parent="1">
          <mxGeometry x="339" y="-890" width="80" height="80" as="geometry" />
        </mxCell>
        <mxCell id="IxU6LafEznbJiutgOqX1-37" value="" style="endArrow=none;html=1;" edge="1" parent="1">
          <mxGeometry width="50" height="50" relative="1" as="geometry">
            <mxPoint x="420" y="-850" as="sourcePoint" />
            <mxPoint x="500" y="-850" as="targetPoint" />
          </mxGeometry>
        </mxCell>
        <mxCell id="IxU6LafEznbJiutgOqX1-38" value="" style="endArrow=none;html=1;" edge="1" parent="1">
          <mxGeometry width="50" height="50" relative="1" as="geometry">
            <mxPoint x="260" y="-850" as="sourcePoint" />
            <mxPoint x="340" y="-850" as="targetPoint" />
          </mxGeometry>
        </mxCell>
        <mxCell id="IxU6LafEznbJiutgOqX1-39" value="" style="endArrow=none;html=1;" edge="1" parent="1">
          <mxGeometry width="50" height="50" relative="1" as="geometry">
            <mxPoint x="260" y="-748" as="sourcePoint" />
            <mxPoint x="260" y="-850" as="targetPoint" />
          </mxGeometry>
        </mxCell>
        <mxCell id="IxU6LafEznbJiutgOqX1-40" value="" style="endArrow=none;html=1;" edge="1" parent="1" target="IxU6LafEznbJiutgOqX1-41">
          <mxGeometry width="50" height="50" relative="1" as="geometry">
            <mxPoint x="500" y="-820" as="sourcePoint" />
            <mxPoint x="500" y="-850" as="targetPoint" />
          </mxGeometry>
        </mxCell>
        <mxCell id="IxU6LafEznbJiutgOqX1-41" value="sqrt(1 + abs(cos(x) * cos(x) * cos(x)))" style="whiteSpace=wrap;html=1;" vertex="1" parent="1">
          <mxGeometry x="439" y="-820" width="120" height="40" as="geometry" />
        </mxCell>
        <mxCell id="IxU6LafEznbJiutgOqX1-42" value="" style="endArrow=classic;html=1;entryX=0.5;entryY=0;entryDx=0;entryDy=0;" edge="1" parent="1" target="IxU6LafEznbJiutgOqX1-41">
          <mxGeometry width="50" height="50" relative="1" as="geometry">
            <mxPoint x="500" y="-850" as="sourcePoint" />
            <mxPoint x="550" y="-900" as="targetPoint" />
          </mxGeometry>
        </mxCell>
        <mxCell id="IxU6LafEznbJiutgOqX1-44" value="" style="endArrow=none;html=1;" edge="1" parent="1">
          <mxGeometry width="50" height="50" relative="1" as="geometry">
            <mxPoint x="500" y="-750" as="sourcePoint" />
            <mxPoint x="500" y="-780" as="targetPoint" />
          </mxGeometry>
        </mxCell>
        <mxCell id="IxU6LafEznbJiutgOqX1-45" value="" style="endArrow=none;html=1;" edge="1" parent="1">
          <mxGeometry width="50" height="50" relative="1" as="geometry">
            <mxPoint x="260" y="-750" as="sourcePoint" />
            <mxPoint x="500" y="-750" as="targetPoint" />
          </mxGeometry>
        </mxCell>
        <mxCell id="IxU6LafEznbJiutgOqX1-46" value="+" style="text;html=1;strokeColor=none;fillColor=none;align=center;verticalAlign=middle;whiteSpace=wrap;" vertex="1" parent="1">
          <mxGeometry x="414" y="-1220" width="40" height="20" as="geometry" />
        </mxCell>
        <mxCell id="IxU6LafEznbJiutgOqX1-48" value="" style="endArrow=none;html=1;startArrow=none;" edge="1" parent="1" source="IxU6LafEznbJiutgOqX1-50">
          <mxGeometry width="50" height="50" relative="1" as="geometry">
            <mxPoint x="260" y="-1200" as="sourcePoint" />
            <mxPoint x="339" y="-1200" as="targetPoint" />
          </mxGeometry>
        </mxCell>
        <mxCell id="IxU6LafEznbJiutgOqX1-50" value="-" style="text;html=1;strokeColor=none;fillColor=none;align=center;verticalAlign=middle;whiteSpace=wrap;" vertex="1" parent="1">
          <mxGeometry x="300" y="-1220" width="40" height="20" as="geometry" />
        </mxCell>
        <mxCell id="IxU6LafEznbJiutgOqX1-51" value="" style="endArrow=none;html=1;entryX=1;entryY=1;entryDx=0;entryDy=0;" edge="1" parent="1" target="IxU6LafEznbJiutgOqX1-50">
          <mxGeometry width="50" height="50" relative="1" as="geometry">
            <mxPoint x="260" y="-1200" as="sourcePoint" />
            <mxPoint x="339" y="-1200" as="targetPoint" />
          </mxGeometry>
        </mxCell>
        <mxCell id="IxU6LafEznbJiutgOqX1-52" value="+" style="text;html=1;strokeColor=none;fillColor=none;align=center;verticalAlign=middle;whiteSpace=wrap;" vertex="1" parent="1">
          <mxGeometry x="440" y="-1040" width="40" height="20" as="geometry" />
        </mxCell>
        <mxCell id="IxU6LafEznbJiutgOqX1-53" value="" style="endArrow=none;html=1;" edge="1" parent="1" target="IxU6LafEznbJiutgOqX1-52">
          <mxGeometry width="50" height="50" relative="1" as="geometry">
            <mxPoint x="439" y="-1020" as="sourcePoint" />
            <mxPoint x="500" y="-1020" as="targetPoint" />
          </mxGeometry>
        </mxCell>
        <mxCell id="IxU6LafEznbJiutgOqX1-54" value="-" style="text;html=1;strokeColor=none;fillColor=none;align=center;verticalAlign=middle;whiteSpace=wrap;" vertex="1" parent="1">
          <mxGeometry x="280" y="-1040" width="40" height="20" as="geometry" />
        </mxCell>
        <mxCell id="IxU6LafEznbJiutgOqX1-55" value="+" style="text;html=1;strokeColor=none;fillColor=none;align=center;verticalAlign=middle;whiteSpace=wrap;" vertex="1" parent="1">
          <mxGeometry x="419" y="-870" width="40" height="20" as="geometry" />
        </mxCell>
        <mxCell id="IxU6LafEznbJiutgOqX1-56" value="-" style="text;html=1;strokeColor=none;fillColor=none;align=center;verticalAlign=middle;whiteSpace=wrap;" vertex="1" parent="1">
          <mxGeometry x="299" y="-870" width="40" height="20" as="geometry" />
        </mxCell>
        <mxCell id="IxU6LafEznbJiutgOqX1-57" value="" style="endArrow=classic;html=1;" edge="1" parent="1" target="IxU6LafEznbJiutgOqX1-58">
          <mxGeometry width="50" height="50" relative="1" as="geometry">
            <mxPoint x="380" y="-750" as="sourcePoint" />
            <mxPoint x="380" y="-720" as="targetPoint" />
          </mxGeometry>
        </mxCell>
        <mxCell id="IxU6LafEznbJiutgOqX1-58" value="y = A + B" style="shape=document;whiteSpace=wrap;html=1;boundedLbl=1;" vertex="1" parent="1">
          <mxGeometry x="319" y="-710" width="120" height="50" as="geometry" />
        </mxCell>
        <mxCell id="IxU6LafEznbJiutgOqX1-59" value="x&amp;lt;1" style="rhombus;whiteSpace=wrap;html=1;" vertex="1" parent="1">
          <mxGeometry x="340" y="-500" width="80" height="80" as="geometry" />
        </mxCell>
        <mxCell id="IxU6LafEznbJiutgOqX1-61" value="" style="endArrow=none;html=1;exitX=1;exitY=0.5;exitDx=0;exitDy=0;" edge="1" parent="1" source="IxU6LafEznbJiutgOqX1-59">
          <mxGeometry width="50" height="50" relative="1" as="geometry">
            <mxPoint x="424" y="-460" as="sourcePoint" />
            <mxPoint x="505" y="-460" as="targetPoint" />
          </mxGeometry>
        </mxCell>
        <mxCell id="IxU6LafEznbJiutgOqX1-62" value="" style="endArrow=none;html=1;" edge="1" parent="1">
          <mxGeometry width="50" height="50" relative="1" as="geometry">
            <mxPoint x="265" y="-460" as="sourcePoint" />
            <mxPoint x="345" y="-460" as="targetPoint" />
          </mxGeometry>
        </mxCell>
        <mxCell id="IxU6LafEznbJiutgOqX1-63" value="" style="endArrow=classic;html=1;" edge="1" parent="1">
          <mxGeometry width="50" height="50" relative="1" as="geometry">
            <mxPoint x="505" y="-460" as="sourcePoint" />
            <mxPoint x="505" y="-430" as="targetPoint" />
          </mxGeometry>
        </mxCell>
        <mxCell id="IxU6LafEznbJiutgOqX1-64" value="" style="endArrow=classic;html=1;" edge="1" parent="1">
          <mxGeometry width="50" height="50" relative="1" as="geometry">
            <mxPoint x="265" y="-460" as="sourcePoint" />
            <mxPoint x="265" y="-430" as="targetPoint" />
          </mxGeometry>
        </mxCell>
        <mxCell id="IxU6LafEznbJiutgOqX1-66" value="B = 7 * x * x + x - 8" style="whiteSpace=wrap;html=1;" vertex="1" parent="1">
          <mxGeometry x="450" y="-430" width="110" height="39" as="geometry" />
        </mxCell>
        <mxCell id="IxU6LafEznbJiutgOqX1-67" value="1 &gt;= x &amp;&amp; x &gt;= 4" style="rhombus;whiteSpace=wrap;html=1;" vertex="1" parent="1">
          <mxGeometry x="205" y="-430" width="120" height="80" as="geometry" />
        </mxCell>
        <mxCell id="IxU6LafEznbJiutgOqX1-68" value="" style="endArrow=none;html=1;" edge="1" parent="1">
          <mxGeometry width="50" height="50" relative="1" as="geometry">
            <mxPoint x="144.5" y="-390.52" as="sourcePoint" />
            <mxPoint x="204.5" y="-390.52" as="targetPoint" />
          </mxGeometry>
        </mxCell>
        <mxCell id="IxU6LafEznbJiutgOqX1-69" value="" style="endArrow=none;html=1;startArrow=none;exitX=0;exitY=1;exitDx=0;exitDy=0;" edge="1" parent="1">
          <mxGeometry width="50" height="50" relative="1" as="geometry">
            <mxPoint x="324.5" y="-390.52" as="sourcePoint" />
            <mxPoint x="384.5" y="-390.52" as="targetPoint" />
          </mxGeometry>
        </mxCell>
        <mxCell id="IxU6LafEznbJiutgOqX1-71" value="" style="endArrow=classic;html=1;" edge="1" parent="1">
          <mxGeometry width="50" height="50" relative="1" as="geometry">
            <mxPoint x="383.5" y="-390.52" as="sourcePoint" />
            <mxPoint x="384.0999999999999" y="-360.52" as="targetPoint" />
          </mxGeometry>
        </mxCell>
        <mxCell id="IxU6LafEznbJiutgOqX1-74" value="" style="endArrow=none;html=1;" edge="1" parent="1">
          <mxGeometry width="50" height="50" relative="1" as="geometry">
            <mxPoint x="323.5" y="-390.52" as="sourcePoint" />
            <mxPoint x="324.5" y="-390.99619047619035" as="targetPoint" />
          </mxGeometry>
        </mxCell>
        <mxCell id="IxU6LafEznbJiutgOqX1-77" value="" style="endArrow=classic;html=1;" edge="1" parent="1">
          <mxGeometry width="50" height="50" relative="1" as="geometry">
            <mxPoint x="145" y="-391" as="sourcePoint" />
            <mxPoint x="145" y="-360" as="targetPoint" />
          </mxGeometry>
        </mxCell>
        <mxCell id="IxU6LafEznbJiutgOqX1-78" value="x &gt; 4" style="rhombus;whiteSpace=wrap;html=1;" vertex="1" parent="1">
          <mxGeometry x="105" y="-360" width="80" height="80" as="geometry" />
        </mxCell>
        <mxCell id="IxU6LafEznbJiutgOqX1-80" value="" style="endArrow=none;html=1;" edge="1" parent="1">
          <mxGeometry width="50" height="50" relative="1" as="geometry">
            <mxPoint x="184.5" y="-320" as="sourcePoint" />
            <mxPoint x="264.5" y="-320" as="targetPoint" />
          </mxGeometry>
        </mxCell>
        <mxCell id="IxU6LafEznbJiutgOqX1-81" value="" style="endArrow=none;html=1;" edge="1" parent="1">
          <mxGeometry width="50" height="50" relative="1" as="geometry">
            <mxPoint x="24.5" y="-320" as="sourcePoint" />
            <mxPoint x="104.5" y="-320" as="targetPoint" />
          </mxGeometry>
        </mxCell>
        <mxCell id="IxU6LafEznbJiutgOqX1-83" value="" style="endArrow=none;html=1;" edge="1" parent="1">
          <mxGeometry width="50" height="50" relative="1" as="geometry">
            <mxPoint x="264.5" y="-290" as="sourcePoint" />
            <mxPoint x="264.5" y="-290" as="targetPoint" />
          </mxGeometry>
        </mxCell>
        <mxCell id="IxU6LafEznbJiutgOqX1-84" value="" style="endArrow=classic;html=1;entryX=0.5;entryY=0;entryDx=0;entryDy=0;" edge="1" parent="1">
          <mxGeometry width="50" height="50" relative="1" as="geometry">
            <mxPoint x="264.5" y="-320" as="sourcePoint" />
            <mxPoint x="263.5" y="-290" as="targetPoint" />
          </mxGeometry>
        </mxCell>
        <mxCell id="IxU6LafEznbJiutgOqX1-85" value="" style="endArrow=none;html=1;" edge="1" parent="1">
          <mxGeometry width="50" height="50" relative="1" as="geometry">
            <mxPoint x="264.5" y="-220" as="sourcePoint" />
            <mxPoint x="264.5" y="-250" as="targetPoint" />
          </mxGeometry>
        </mxCell>
        <mxCell id="IxU6LafEznbJiutgOqX1-86" value="" style="endArrow=none;html=1;" edge="1" parent="1">
          <mxGeometry width="50" height="50" relative="1" as="geometry">
            <mxPoint x="24.5" y="-220" as="sourcePoint" />
            <mxPoint x="264.5" y="-220" as="targetPoint" />
          </mxGeometry>
        </mxCell>
        <mxCell id="IxU6LafEznbJiutgOqX1-75" value="B = 1/tan ((x + 4) / (11))" style="whiteSpace=wrap;html=1;direction=west;" vertex="1" parent="1">
          <mxGeometry x="324" y="-360" width="120" height="40" as="geometry" />
        </mxCell>
        <mxCell id="IxU6LafEznbJiutgOqX1-90" value="" style="endArrow=none;html=1;" edge="1" parent="1">
          <mxGeometry width="50" height="50" relative="1" as="geometry">
            <mxPoint x="25" y="-220" as="sourcePoint" />
            <mxPoint x="25" y="-320" as="targetPoint" />
          </mxGeometry>
        </mxCell>
        <mxCell id="IxU6LafEznbJiutgOqX1-91" value="sqrt(1 + abs(cos(x) * cos(x) * cos(x)))" style="whiteSpace=wrap;html=1;" vertex="1" parent="1">
          <mxGeometry x="204" y="-290" width="120" height="40" as="geometry" />
        </mxCell>
        <mxCell id="IxU6LafEznbJiutgOqX1-94" value="" style="endArrow=none;html=1;" edge="1" parent="1">
          <mxGeometry width="50" height="50" relative="1" as="geometry">
            <mxPoint x="145" y="-220" as="sourcePoint" />
            <mxPoint x="385" y="-320" as="targetPoint" />
            <Array as="points">
              <mxPoint x="145" y="-200" />
              <mxPoint x="385" y="-200" />
            </Array>
          </mxGeometry>
        </mxCell>
        <mxCell id="IxU6LafEznbJiutgOqX1-95" value="" style="endArrow=none;html=1;" edge="1" parent="1">
          <mxGeometry width="50" height="50" relative="1" as="geometry">
            <mxPoint x="265" y="-200" as="sourcePoint" />
            <mxPoint x="509" y="-391" as="targetPoint" />
            <Array as="points">
              <mxPoint x="265" y="-180" />
              <mxPoint x="509" y="-180" />
            </Array>
          </mxGeometry>
        </mxCell>
        <mxCell id="IxU6LafEznbJiutgOqX1-96" value="" style="endArrow=classic;html=1;" edge="1" parent="1" target="IxU6LafEznbJiutgOqX1-97">
          <mxGeometry width="50" height="50" relative="1" as="geometry">
            <mxPoint x="385" y="-180" as="sourcePoint" />
            <mxPoint x="385" y="-150" as="targetPoint" />
          </mxGeometry>
        </mxCell>
        <mxCell id="IxU6LafEznbJiutgOqX1-97" value="y = A + B" style="whiteSpace=wrap;html=1;" vertex="1" parent="1">
          <mxGeometry x="325" y="-160" width="120" height="60" as="geometry" />
        </mxCell>
        <mxCell id="IxU6LafEznbJiutgOqX1-98" value="y" style="whiteSpace=wrap;html=1;" vertex="1" parent="1">
          <mxGeometry x="320" y="-600" width="120" height="60" as="geometry" />
        </mxCell>
        <mxCell id="IxU6LafEznbJiutgOqX1-103" value="" style="endArrow=classic;html=1;entryX=0.5;entryY=0;entryDx=0;entryDy=0;exitX=0.5;exitY=1;exitDx=0;exitDy=0;" edge="1" parent="1" source="IxU6LafEznbJiutgOqX1-98" target="IxU6LafEznbJiutgOqX1-59">
          <mxGeometry width="50" height="50" relative="1" as="geometry">
            <mxPoint x="391.75" y="-550" as="sourcePoint" />
            <mxPoint x="447.75" y="-600" as="targetPoint" />
          </mxGeometry>
        </mxCell>
        <mxCell id="IxU6LafEznbJiutgOqX1-104" value="" style="endArrow=classic;html=1;entryX=0.5;entryY=0;entryDx=0;entryDy=0;" edge="1" parent="1" target="IxU6LafEznbJiutgOqX1-98">
          <mxGeometry width="50" height="50" relative="1" as="geometry">
            <mxPoint x="380" y="-670" as="sourcePoint" />
            <mxPoint x="430" y="-720" as="targetPoint" />
          </mxGeometry>
        </mxCell>
        <mxCell id="IxU6LafEznbJiutgOqX1-105" value="+" style="text;html=1;strokeColor=none;fillColor=none;align=center;verticalAlign=middle;whiteSpace=wrap;" vertex="1" parent="1">
          <mxGeometry x="420" y="-480" width="40" height="20" as="geometry" />
        </mxCell>
        <mxCell id="IxU6LafEznbJiutgOqX1-106" value="-" style="text;html=1;strokeColor=none;fillColor=none;align=center;verticalAlign=middle;whiteSpace=wrap;" vertex="1" parent="1">
          <mxGeometry x="300" y="-480" width="40" height="20" as="geometry" />
        </mxCell>
        <mxCell id="IxU6LafEznbJiutgOqX1-107" value="+" style="text;html=1;strokeColor=none;fillColor=none;align=center;verticalAlign=middle;whiteSpace=wrap;" vertex="1" parent="1">
          <mxGeometry x="324" y="-411" width="40" height="20" as="geometry" />
        </mxCell>
        <mxCell id="IxU6LafEznbJiutgOqX1-108" value="-" style="text;html=1;strokeColor=none;fillColor=none;align=center;verticalAlign=middle;whiteSpace=wrap;" vertex="1" parent="1">
          <mxGeometry x="165" y="-411" width="40" height="20" as="geometry" />
        </mxCell>
        <mxCell id="IxU6LafEznbJiutgOqX1-109" value="+" style="text;html=1;strokeColor=none;fillColor=none;align=center;verticalAlign=middle;whiteSpace=wrap;" vertex="1" parent="1">
          <mxGeometry x="185" y="-340" width="40" height="20" as="geometry" />
        </mxCell>
        <mxCell id="IxU6LafEznbJiutgOqX1-110" value="-" style="text;html=1;strokeColor=none;fillColor=none;align=center;verticalAlign=middle;whiteSpace=wrap;" vertex="1" parent="1">
          <mxGeometry x="65" y="-340" width="40" height="20" as="geometry" />
        </mxCell>
        <mxCell id="IxU6LafEznbJiutgOqX1-111" value="y" style="whiteSpace=wrap;html=1;" vertex="1" parent="1">
          <mxGeometry x="325" y="-70" width="120" height="40" as="geometry" />
        </mxCell>
        <mxCell id="IxU6LafEznbJiutgOqX1-112" value="" style="endArrow=classic;html=1;entryX=0.5;entryY=0;entryDx=0;entryDy=0;exitX=0.5;exitY=1;exitDx=0;exitDy=0;" edge="1" parent="1" source="IxU6LafEznbJiutgOqX1-97" target="IxU6LafEznbJiutgOqX1-111">
          <mxGeometry width="50" height="50" relative="1" as="geometry">
            <mxPoint x="380" y="-100" as="sourcePoint" />
            <mxPoint x="430" y="-150" as="targetPoint" />
          </mxGeometry>
        </mxCell>
        <mxCell id="IxU6LafEznbJiutgOqX1-114" value="кінець" style="whiteSpace=wrap;html=1;" vertex="1" parent="1">
          <mxGeometry x="325" width="120" height="40" as="geometry" />
        </mxCell>
        <mxCell id="IxU6LafEznbJiutgOqX1-115" value="" style="endArrow=classic;html=1;entryX=0.5;entryY=0;entryDx=0;entryDy=0;exitX=0.5;exitY=1;exitDx=0;exitDy=0;" edge="1" parent="1" source="IxU6LafEznbJiutgOqX1-111" target="IxU6LafEznbJiutgOqX1-114">
          <mxGeometry width="50" height="50" relative="1" as="geometry">
            <mxPoint x="385" y="-30" as="sourcePoint" />
            <mxPoint x="430" y="-80" as="targetPoint" />
          </mxGeometry>
        </mxCell>
      </root>
    </mxGraphModel>
  </diagram>
</mxfile>
